# This file uses centimeters as units for non-parametric coordinates.

mtllib Rocas.mtl
g default
v -0.333144 -0.316279 0.375210
v 0.333144 -0.316279 0.375210
v -0.352344 0.313779 0.515894
v 0.352344 0.313687 0.515894
v -0.352344 0.488069 -0.177891
v 0.352344 0.488069 -0.177891
v -0.333144 -0.199527 -0.280768
v 0.333144 -0.199527 -0.280768
v -0.141114 0.679373 0.445484
v 0.226479 0.672162 0.445484
v 0.226479 0.881773 0.083579
v -0.141114 0.908865 0.083579
v 0.000000 -0.274887 -0.490990
v -0.375000 0.065711 -0.276075
v 0.526907 -0.367216 0.027765
v -0.526907 -0.367216 0.027765
v 0.469792 0.426329 0.169002
v -0.469792 0.426329 0.169002
v 0.284375 0.516258 0.504574
v -0.284375 0.531677 0.504574
v 0.284375 0.774277 -0.055376
v -0.284375 0.788256 -0.055376
v 0.000000 -0.459545 0.546520
v 0.375000 -0.065711 0.462321
v 0.000000 0.205384 0.631525
v -0.375000 -0.065711 0.462321
v 0.063914 0.673825 0.498445
v 0.287872 0.850779 0.277952
v 0.063914 0.947915 0.057458
v -0.160044 0.857452 0.277952
v 0.000000 0.508650 -0.293521
v 0.375000 0.065711 -0.276075
v 0.000000 -0.087614 0.585387
v 0.111036 0.913668 0.302604
v 0.000000 0.087614 -0.399141
v 0.000000 -0.423136 0.017812
v 0.500000 0.000000 0.093123
v -0.500000 0.000000 0.093123
v 0.000122 0.396841 0.599103
v 0.379288 0.695006 0.225803
v 0.000122 0.804643 -0.147497
v -0.379045 0.721757 0.225803
v -0.586910 -0.251832 -0.331512
v 0.153673 -0.251832 0.101725
v -0.620735 0.643119 -0.322655
v 0.162529 0.643119 0.135550
v -0.162530 0.643119 -1.105920
v 0.620735 0.643119 -0.647714
v -0.153673 -0.251832 -1.072095
v 0.586910 -0.251832 -0.638858
v -0.277510 1.332343 -0.370682
v 0.131072 1.332343 -0.131663
v 0.370090 1.332343 -0.540245
v -0.038492 1.332343 -0.779263
v 0.342609 -0.394810 -1.070846
v -0.172980 0.085496 -1.145835
v 0.585661 -0.394810 -0.142576
v -0.585661 -0.394810 -0.827794
v 0.522177 0.643119 -0.179714
v -0.522177 0.643119 -0.790656
v 0.131177 1.051696 0.015808
v -0.500993 1.051696 -0.354008
v 0.500993 1.051696 -0.616362
v -0.131177 1.051696 -0.986177
v -0.342609 -0.394810 0.100476
v 0.172980 0.085496 0.175465
v -0.305471 0.643119 0.036992
v -0.660650 0.085496 -0.312205
v -0.076307 1.424589 -0.191747
v 0.318248 1.424589 -0.295055
v 0.214940 1.424589 -0.689610
v -0.179615 1.424589 -0.586302
v 0.305471 0.643119 -1.007361
v 0.660650 0.085496 -0.658165
v -0.325113 0.085496 0.070569
v 0.120421 1.591608 -0.407866
v 0.325112 0.085496 -1.040938
v -0.000000 -0.467950 -0.485185
v 0.555753 0.085496 -0.160072
v -0.555753 0.085496 -0.810298
v -0.246412 1.060506 -0.063654
v 0.421578 1.060506 -0.238556
v 0.246676 1.060506 -0.906546
v -0.421315 1.060506 -0.731644
v 0.195666 -0.231852 0.172668
v 0.521306 -0.346807 0.172668
v 0.323318 0.092112 0.182619
v 0.697321 -0.062318 0.182619
v 0.323124 0.092327 -0.182619
v 0.696963 -0.061921 -0.182619
v 0.195666 -0.231852 -0.172668
v 0.521306 -0.346807 -0.172668
v 0.579470 0.250017 0.096179
v 0.785569 0.157245 0.096179
v 0.785465 0.157360 -0.094343
v 0.579470 0.250017 -0.094343
v 0.339330 -0.343594 -0.273095
v 0.220404 -0.096602 -0.194362
v 0.596850 -0.434502 0.000000
v 0.081810 -0.252687 0.000000
v 0.764228 -0.093133 0.000000
v 0.263818 0.114705 0.000000
v 0.757975 0.061041 0.147391
v 0.441261 0.202174 0.147391
v 0.757548 0.061515 -0.147391
v 0.440971 0.202497 -0.147391
v 0.339330 -0.343594 0.273095
v 0.591689 -0.231251 0.194362
v 0.510181 0.015050 0.243492
v 0.220404 -0.096602 0.194362
v 0.709417 0.230359 0.117452
v 0.834906 0.173924 0.001374
v 0.709417 0.230359 -0.114703
v 0.585535 0.285011 0.001374
v 0.509806 0.015467 -0.243492
v 0.591591 -0.231142 -0.194362
v 0.405003 -0.162768 0.259149
v 0.762963 0.276585 0.002388
v 0.404937 -0.162695 -0.259149
v 0.329530 -0.371354 0.000000
v 0.655686 -0.256042 0.000000
v 0.159312 -0.075036 0.000000
v 0.601685 0.134012 0.196524
v 0.816606 0.035730 0.000003
v 0.601201 0.134550 -0.196519
v 0.392962 0.225416 0.000003
vt 0.690297 0.889879
vt 0.771769 0.939302
vt 0.143971 0.899920
vt 0.620790 0.899655
vt 0.094310 0.797023
vt 0.148944 0.815085
vt 0.222801 0.826807
vt 0.219455 0.902705
vt 0.283115 0.964407
vt 0.354149 0.859555
vt 0.315352 0.844882
vt 0.345886 0.790613
vt 0.391213 0.804338
vt 0.295605 0.818698
vt 0.317121 0.779110
vt 0.333446 0.747702
vt 0.364751 0.747177
vt 0.400226 0.755185
vt 0.514679 0.713072
vt 0.325663 0.635028
vt 0.234481 0.571705
vt 0.622566 0.713892
vt 0.271117 0.683705
vt 0.194706 0.651771
vt 0.138886 0.637641
vt 0.136306 0.547099
vt 0.692046 0.725539
vt 0.014172 0.688167
vt 0.685130 0.807707
vt 0.110893 0.715788
vt 0.167866 0.732041
vt 0.241883 0.753014
vt 0.612977 0.807048
vt 0.515679 0.807081
vt 0.266754 0.890619
vt 0.345271 0.913107
vt 0.263490 0.827986
vt 0.288630 0.768321
vt 0.317334 0.718473
vt 0.366865 0.700592
vt 0.435143 0.715071
vt 0.443257 0.812497
vt 0.470454 0.890149
vt 0.046064 0.871821
vt 0.790363 0.808829
vt 0.774617 0.677948
vt 0.396179 0.600041
vt 0.525377 0.898764
vt 0.297940 0.509926
vt 0.230350 0.475417
vt 0.165239 0.992106
vt 0.089389 0.983610
vt 0.137862 0.239313
vt 0.098156 0.131027
vt 0.205716 0.118609
vt 0.199199 0.236135
vt 0.170990 0.012077
vt 0.258427 0.020531
vt 0.413946 0.063458
vt 0.311327 0.137159
vt 0.280617 0.236175
vt 0.366380 0.235744
vt 0.390323 0.203564
vt 0.418341 0.230175
vt 0.387645 0.266897
vt 0.413869 0.175965
vt 0.438726 0.207166
vt 0.461072 0.240056
vt 0.438653 0.267246
vt 0.411686 0.297279
vt 0.405592 0.420049
vt 0.508150 0.346902
vt 0.613962 0.365336
vt 0.561238 0.463287
vt 0.539526 0.247935
vt 0.620705 0.247774
vt 0.681992 0.244576
vt 0.721589 0.352902
vt 0.648693 0.471783
vt 0.136238 0.436362
vt 0.033573 0.478797
vt 0.019321 0.314712
vt 0.137566 0.341522
vt 0.682352 0.142308
vt 0.800557 0.169215
vt 0.683722 0.047452
vt 0.786435 0.005114
vt 0.604194 0.131515
vt 0.580336 0.034321
vt 0.509397 0.144679
vt 0.215769 0.352222
vt 0.239572 0.449383
vt 0.310852 0.338855
vt 0.354359 0.173096
vt 0.326916 0.238711
vt 0.411480 0.129369
vt 0.467847 0.176598
vt 0.494040 0.246248
vt 0.464408 0.311414
vt 0.407120 0.353324
vt 0.353480 0.306152
vt 0.977437 0.611862
vt 0.924749 0.651702
vt 0.917638 0.601346
vt 0.967511 0.570059
vt 0.849848 0.649712
vt 0.853926 0.615949
vt 0.852434 0.579379
vt 0.902507 0.557052
vt 0.935834 0.502008
vt 0.871066 0.502068
vt 0.859397 0.522372
vt 0.839471 0.511431
vt 0.853682 0.487713
vt 0.844981 0.536702
vt 0.829417 0.527930
vt 0.814440 0.517955
vt 0.820518 0.498428
vt 0.833260 0.478510
vt 0.810523 0.420139
vt 0.770456 0.475546
vt 0.721457 0.482936
vt 0.741376 0.416167
vt 0.773517 0.531288
vt 0.741271 0.548403
vt 0.715742 0.571050
vt 0.674786 0.518642
vt 0.825211 0.360311
vt 0.778143 0.325193
vt 0.809718 0.277741
vt 0.839838 0.324105
vt 0.888297 0.269161
vt 0.887659 0.330449
vt 0.835053 0.223101
vt 0.887630 0.196017
vt 0.940039 0.222856
vt 0.964079 0.277467
vt 0.936402 0.329311
vt 0.765769 0.639377
vt 0.786210 0.602061
vt 0.805685 0.567754
vt 0.884030 0.372574
vt 0.939793 0.372574
vt 0.933920 0.432881
vt 0.881506 0.429363
vt 0.882425 0.536016
vt 0.897113 0.497221
vt 0.849219 0.555445
vt 0.817850 0.546996
vt 0.795904 0.522738
vt 0.798016 0.483837
vt 0.826688 0.452540
vt 0.870875 0.456685
vn -0.564685 -0.691518 0.450481
vn 0.000000 -0.838440 0.544993
vn -0.000016 -0.179613 0.983737
vn -0.728579 -0.111345 0.675851
vn 0.564685 -0.691518 0.450481
vn 0.728584 -0.111351 0.675845
vn 0.736790 0.042464 0.674787
vn -0.001353 -0.056178 0.998420
vn -0.736875 0.041833 0.674734
vn -0.284047 0.570123 0.770894
vn 0.011369 0.506534 0.862145
vn 0.052799 0.855815 0.514580
vn -0.388989 0.804184 0.449417
vn 0.453467 0.449966 0.769349
vn 0.628801 0.688673 0.361025
vn 0.538720 0.803890 -0.252073
vn 0.038916 0.967011 -0.251744
vn -0.364807 0.923137 -0.121386
vn -0.697931 0.277604 -0.660173
vn 0.000361 0.321832 -0.946797
vn 0.000000 0.192688 -0.981260
vn -0.706960 0.143922 -0.692455
vn 0.696559 0.281193 -0.660104
vn 0.706960 0.143922 -0.692455
vn 0.564685 -0.493621 -0.661415
vn -0.000000 -0.598911 -0.800816
vn -0.564685 -0.493621 -0.661415
vn 0.000000 -0.984528 -0.175228
vn -0.683479 -0.718676 -0.127911
vn 0.683479 -0.718676 -0.127911
vn 0.999842 0.017730 -0.001341
vn 0.986320 0.163209 0.023129
vn -0.999842 0.017730 -0.001333
vn -0.986925 0.159316 0.024437
vn -0.011865 0.230243 0.973061
vn -0.591349 0.343446 0.729625
vn 0.616510 0.280834 0.735559
vn 0.920049 0.379003 0.099331
vn 0.638257 0.512498 -0.574433
vn -0.006808 0.578077 -0.815954
vn -0.634151 0.569979 -0.522471
vn -0.855002 0.492480 0.162589
vn -0.772543 -0.601882 0.202278
vn -0.345117 -0.729970 0.589948
vn -0.504861 0.017762 0.863018
vn -0.967189 0.020357 0.253243
vn 0.202278 -0.601882 0.772543
vn 0.253243 0.020357 0.967189
vn 0.250232 0.155053 0.955690
vn -0.499378 0.148357 0.853588
vn -0.955674 0.155158 0.250228
vn -0.722677 0.662393 0.197416
vn -0.362259 0.698523 0.617117
vn 0.042338 0.998731 0.027274
vn -0.540111 0.780030 -0.315963
vn 0.231060 0.490193 0.840429
vn 0.698176 0.588107 0.408265
vn 0.841262 0.498807 -0.208497
vn 0.356653 0.706256 -0.611556
vn -0.181525 0.668039 -0.721646
vn -0.250227 0.155163 -0.955673
vn 0.499328 0.148362 -0.853616
vn 0.504861 0.017762 -0.863018
vn -0.253243 0.020357 -0.967189
vn 0.955689 0.155057 -0.250232
vn 0.967189 0.020357 -0.253243
vn 0.772543 -0.601882 -0.202278
vn 0.345117 -0.729970 -0.589948
vn -0.202278 -0.601882 -0.772543
vn 0.000000 -1.000000 0.000000
vn -0.589948 -0.729970 -0.345116
vn 0.589948 -0.729970 0.345117
vn 0.863018 0.017762 0.504861
vn 0.853610 0.148301 0.499356
vn -0.863018 0.017762 -0.504861
vn -0.853594 0.148417 -0.499349
vn -0.484612 0.358495 0.797893
vn -0.889803 0.398470 0.222426
vn 0.229532 0.326186 0.917016
vn 0.823677 0.300308 0.481011
vn 0.910448 0.329650 -0.249833
vn 0.457277 0.362979 -0.811877
vn -0.241083 0.401027 -0.883774
vn -0.787131 0.409625 -0.461120
vn -0.732412 -0.379152 0.565523
vn -0.245948 -0.688673 0.682084
vn -0.017588 0.022332 0.999596
vn -0.644120 0.297049 0.704891
vn 0.313734 -0.763072 0.565059
vn 0.592561 -0.306494 0.744938
vn 0.621031 -0.243965 0.744850
vn 0.054531 0.150423 0.987117
vn -0.530427 0.480229 0.698590
vn -0.076721 0.855059 0.512824
vn 0.305369 0.655607 0.690601
vn 0.459251 0.888305 0.001915
vn -0.113976 0.993483 0.000420
vn 0.731599 0.227590 0.642624
vn 0.968290 0.249827 -0.000458
vn 0.732647 0.237162 -0.637952
vn 0.308730 0.662783 -0.682205
vn -0.071642 0.859095 -0.506778
vn -0.531246 0.480043 -0.698095
vn 0.054343 0.150456 -0.987122
vn -0.017419 0.022235 -0.999601
vn -0.644371 0.296746 -0.704789
vn 0.620595 -0.242995 -0.745530
vn 0.592620 -0.305867 -0.745149
vn 0.313911 -0.762915 -0.565173
vn -0.245841 -0.688659 -0.682137
vn -0.732433 -0.379173 -0.565481
vn -0.332880 -0.942969 0.000000
vn -0.887492 -0.460823 0.000000
vn 0.382456 -0.923974 -0.000100
vn 0.871936 -0.489619 -0.000640
vn 0.883879 -0.467714 -0.001225
vn -0.916117 0.400911 0.000175
vn -0.798578 0.601891 0.000559
vn 0.155717 0.369044 0.916274
vn -0.304766 0.716206 0.627827
vn 0.679508 -0.035231 0.732822
vn 0.964278 -0.264882 -0.002463
vn 0.679248 -0.029658 -0.733309
vn 0.157743 0.374033 -0.913902
vn -0.303282 0.718284 -0.626169
vn -0.512974 0.858404 0.000400
s 1
g pCube4
usemtl initialShadingGroup
f 1/52/1 23/44/2 33/3/3 26/51/4
f 23/44/2 2/5/5 24/6/6 33/3/3
f 33/3/3 24/6/6 4/7/7 25/8/8
f 26/51/4 33/3/3 25/8/8 3/9/9
f 9/10/10 27/11/11 34/12/12 30/13/13
f 27/11/11 10/14/14 28/15/15 34/12/12
f 34/12/12 28/15/15 11/16/16 29/17/17
f 30/13/13 34/12/12 29/17/17 12/18/18
f 5/47/19 31/20/20 35/21/21 14/49/22
f 31/20/20 6/23/23 32/24/24 35/21/21
f 35/21/21 32/24/24 8/25/25 13/26/26
f 14/49/22 35/21/21 13/26/26 7/50/27
f 7/27/27 13/46/26 36/45/28 16/29/29
f 13/26/26 8/25/25 15/30/30 36/28/28
f 36/28/28 15/30/30 2/5/5 23/44/2
f 16/29/29 36/45/28 23/2/2 1/1/1
f 2/5/5 15/30/30 37/31/31 24/6/6
f 15/30/30 8/25/25 32/24/24 37/31/31
f 37/31/31 32/24/24 6/23/23 17/32/32
f 24/6/6 37/31/31 17/32/32 4/7/7
f 7/27/27 16/29/29 38/33/33 14/22/22
f 16/29/29 1/1/1 26/4/4 38/33/33
f 38/33/33 26/4/4 3/48/9 18/34/34
f 14/22/22 38/33/33 18/34/34 5/19/19
f 3/9/9 25/8/8 39/35/35 20/36/36
f 25/8/8 4/7/7 19/37/37 39/35/35
f 39/35/35 19/37/37 10/14/14 27/11/11
f 20/36/36 39/35/35 27/11/11 9/10/10
f 4/7/7 17/32/32 40/38/38 19/37/37
f 17/32/32 6/23/23 21/39/39 40/38/38
f 40/38/38 21/39/39 11/16/16 28/15/15
f 19/37/37 40/38/38 28/15/15 10/14/14
f 6/23/23 31/20/20 41/40/40 21/39/39
f 31/20/20 5/47/19 22/41/41 41/40/40
f 41/40/40 22/41/41 12/18/18 29/17/17
f 21/39/39 41/40/40 29/17/17 11/16/16
f 5/19/19 18/34/34 42/42/42 22/41/41
f 18/34/34 3/48/9 20/43/36 42/42/42
f 42/42/42 20/36/36 9/10/10 30/13/13
f 22/41/41 42/42/42 30/13/13 12/18/18
s 4
f 43/53/43 65/54/44 75/55/45 68/56/46
f 65/54/44 44/57/47 66/58/48 75/55/45
f 75/55/45 66/58/48 46/59/49 67/60/50
f 68/56/46 75/55/45 67/60/50 45/61/51
f 51/62/52 69/63/53 76/64/54 72/65/55
f 69/63/53 52/66/56 70/67/57 76/64/54
f 76/64/54 70/67/57 53/68/58 71/69/59
f 72/65/55 76/64/54 71/69/59 54/70/60
f 47/71/61 73/72/62 77/73/63 56/74/64
f 73/72/62 48/75/65 74/76/66 77/73/63
f 77/73/63 74/76/66 50/77/67 55/78/68
f 56/74/64 77/73/63 55/78/68 49/79/69
f 49/80/69 55/81/68 78/82/70 58/83/71
f 55/78/68 50/77/67 57/84/72 78/85/70
f 78/85/70 57/84/72 44/86/47 65/87/44
f 58/83/71 78/82/70 65/54/44 43/53/43
f 44/86/47 57/84/72 79/88/73 66/89/48
f 57/84/72 50/77/67 74/76/66 79/88/73
f 79/88/73 74/76/66 48/75/65 59/90/74
f 66/89/48 79/88/73 59/90/74 46/59/49
f 49/80/69 58/83/71 80/91/75 56/92/64
f 58/83/71 43/53/43 68/56/46 80/91/75
f 80/91/75 68/56/46 45/61/51 60/93/76
f 56/92/64 80/91/75 60/93/76 47/71/61
f 45/61/51 67/60/50 81/94/77 62/95/78
f 67/60/50 46/59/49 61/96/79 81/94/77
f 81/94/77 61/96/79 52/66/56 69/63/53
f 62/95/78 81/94/77 69/63/53 51/62/52
f 46/59/49 59/90/74 82/97/80 61/96/79
f 59/90/74 48/75/65 63/98/81 82/97/80
f 82/97/80 63/98/81 53/68/58 70/67/57
f 61/96/79 82/97/80 70/67/57 52/66/56
f 48/75/65 73/72/62 83/99/82 63/98/81
f 73/72/62 47/71/61 64/100/83 83/99/82
f 83/99/82 64/100/83 54/70/60 71/69/59
f 63/98/81 83/99/82 71/69/59 53/68/58
f 47/71/61 60/93/76 84/101/84 64/100/83
f 60/93/76 45/61/51 62/95/78 84/101/84
f 84/101/84 62/95/78 51/62/52 72/65/55
f 64/100/83 84/101/84 72/65/55 54/70/60
s 7
f 85/102/85 107/103/86 117/104/87 110/105/88
f 107/103/86 86/106/89 108/107/90 117/104/87
f 117/104/87 108/107/90 88/108/91 109/109/92
f 110/105/88 117/104/87 109/109/92 87/110/93
f 93/111/94 111/112/95 118/113/96 114/114/97
f 111/112/95 94/115/98 112/116/99 118/113/96
f 118/113/96 112/116/99 95/117/100 113/118/101
f 114/114/97 118/113/96 113/118/101 96/119/102
f 89/120/103 115/121/104 119/122/105 98/123/106
f 115/121/104 90/124/107 116/125/108 119/122/105
f 119/122/105 116/125/108 92/126/109 97/127/110
f 98/128/106 119/129/105 97/130/110 91/131/111
f 91/131/111 97/130/110 120/132/112 100/133/113
f 97/130/110 92/134/109 99/135/114 120/132/112
f 120/132/112 99/135/114 86/136/89 107/137/86
f 100/133/113 120/132/112 107/137/86 85/138/85
f 86/106/89 99/139/114 121/140/115 108/107/90
f 99/139/114 92/126/109 116/125/108 121/140/115
f 121/140/115 116/125/108 90/124/107 101/141/116
f 108/107/90 121/140/115 101/141/116 88/108/91
f 91/131/111 100/133/113 122/142/117 98/128/106
f 100/133/113 85/138/85 110/143/88 122/142/117
f 122/142/117 110/143/88 87/144/93 102/145/118
f 98/128/106 122/142/117 102/145/118 89/120/103
f 87/110/93 109/109/92 123/146/119 104/147/120
f 109/109/92 88/108/91 103/148/121 123/146/119
f 123/146/119 103/148/121 94/115/98 111/112/95
f 104/147/120 123/146/119 111/112/95 93/111/94
f 88/108/91 101/141/116 124/149/122 103/148/121
f 101/141/116 90/124/107 105/150/123 124/149/122
f 124/149/122 105/150/123 95/117/100 112/116/99
f 103/148/121 124/149/122 112/116/99 94/115/98
f 90/124/107 115/121/104 125/151/124 105/150/123
f 115/121/104 89/120/103 106/152/125 125/151/124
f 125/151/124 106/152/125 96/119/102 113/118/101
f 105/150/123 125/151/124 113/118/101 95/117/100
f 89/120/103 102/145/118 126/153/126 106/152/125
f 102/145/118 87/110/93 104/147/120 126/153/126
f 126/153/126 104/147/120 93/111/94 114/114/97
f 106/152/125 126/153/126 114/114/97 96/119/102
