# This file uses centimeters as units for non-parametric coordinates.

mtllib Letrero_LP.mtl
g default
v -0.366018 -0.350722 -2.242739
v -0.331793 -0.350722 -2.208477
v -0.355994 -0.350722 -2.218512
v -0.331793 1.412218 -2.290449
v -0.355994 1.411985 -2.300473
v -0.366018 1.411423 -2.324674
v -0.112475 -0.350722 -2.242739
v -0.122499 -0.350722 -2.218512
v -0.146699 -0.350722 -2.208477
v -0.146699 1.412218 -2.290449
v -0.122499 1.411985 -2.300473
v -0.112475 1.411423 -2.324674
v -0.355994 3.472747 -2.651134
v -0.366018 3.472747 -2.626933
v -0.331793 3.472747 -2.661158
v -0.331793 1.412218 -2.661158
v -0.355994 1.412451 -2.651134
v -0.366018 1.413013 -2.626933
v -0.122499 3.472747 -2.651134
v -0.146699 3.472747 -2.661158
v -0.112475 3.472747 -2.626933
v -0.112475 1.413013 -2.626933
v -0.122499 1.412451 -2.651134
v -0.146699 1.412218 -2.661158
v -0.355994 3.472747 -2.300473
v -0.331793 3.472747 -2.290449
v -0.366018 3.472747 -2.324674
v -0.122499 3.472747 -2.300473
v -0.112475 3.472747 -2.324674
v -0.146699 3.472747 -2.290449
v -0.122499 -0.350722 -2.569151
v -0.112475 -0.350722 -2.544924
v -0.146699 -0.350722 -2.579186
v -0.355994 -0.350722 -2.569151
v -0.331793 -0.350722 -2.579186
v -0.366018 -0.350722 -2.544924
v -0.331793 3.472747 -2.324674
v -0.331793 3.472747 -2.626934
v -0.146699 3.472747 -2.626933
v -0.146699 3.472747 -2.324674
v -0.647893 2.035629 -0.991514
v -0.355105 2.035629 -0.991514
v -0.647893 1.921723 -4.015917
v -0.355105 1.921723 -4.015917
v -0.647893 1.350244 -3.995065
v -0.355105 1.350244 -3.995065
v -0.647893 1.493380 -0.971916
v -0.355105 1.493380 -0.971916
v -0.647893 1.480304 -3.988167
v -0.632540 1.524293 -3.963828
v -0.647893 1.565648 -3.992415
v -0.355105 1.480304 -3.988167
v -0.370459 1.524293 -3.963828
v -0.355105 1.565648 -3.992415
v -0.355105 1.629369 -0.965307
v -0.370459 1.670724 -0.993895
v -0.355105 1.714713 -0.969554
v -0.647893 1.629369 -0.965307
v -0.632540 1.670724 -0.993895
v -0.647893 1.714713 -0.969554
v -0.647893 1.855176 -4.013389
v -0.630670 1.831825 -3.983330
v -0.647893 1.808475 -4.010739
v -0.355105 1.855172 -4.013388
v -0.372329 1.831825 -3.983330
v -0.355105 1.808479 -4.010740
v -0.355105 1.969084 -0.988985
v -0.372329 1.945736 -1.016339
v -0.355105 1.922387 -0.986225
v -0.647893 1.969079 -0.988985
v -0.630670 1.945736 -1.016340
v -0.647893 1.922393 -0.986225
v -0.355105 2.471793 -4.063589
v -0.647893 2.471793 -4.063589
v -0.355105 2.601188 -1.039809
v -0.647893 2.601188 -1.039809
v -0.355105 2.029881 -1.014691
v -0.647893 2.029881 -1.014691
v -0.355105 1.929722 -4.039568
v -0.647893 1.929722 -4.039568
v -0.355105 2.158966 -1.032013
v -0.370459 2.200858 -1.059807
v -0.355105 2.244376 -1.034634
v -0.647893 2.158966 -1.032013
v -0.632540 2.200858 -1.059807
v -0.647893 2.244376 -1.034634
v -0.647893 2.064741 -4.057079
v -0.632540 2.108258 -4.031906
v -0.647893 2.150150 -4.059701
v -0.355105 2.064741 -4.057079
v -0.370459 2.108258 -4.031906
v -0.355105 2.150150 -4.059701
v -0.355105 2.534653 -1.036985
v -0.372329 2.508963 -1.065070
v -0.355105 2.487890 -1.035874
v -0.647893 2.534649 -1.036985
v -0.630670 2.508963 -1.065070
v -0.647893 2.487894 -1.035874
v -0.647893 2.405260 -4.060765
v -0.630670 2.384184 -4.031624
v -0.647893 2.358492 -4.059765
v -0.355105 2.405254 -4.060765
v -0.372329 2.384184 -4.031623
v -0.355105 2.358497 -4.059765
v -0.647893 3.150934 -0.991514
v -0.355105 3.150934 -0.991514
v -0.647893 3.037028 -4.015917
v -0.355105 3.037028 -4.015917
v -0.647893 2.465548 -3.995065
v -0.355105 2.465548 -3.995065
v -0.647893 2.608685 -0.971916
v -0.355105 2.608685 -0.971916
v -0.647893 2.595608 -3.988167
v -0.632540 2.639597 -3.963828
v -0.647893 2.680952 -3.992415
v -0.355105 2.595608 -3.988167
v -0.370459 2.639597 -3.963828
v -0.355105 2.680952 -3.992415
v -0.355105 2.744674 -0.965307
v -0.370459 2.786028 -0.993895
v -0.355105 2.830017 -0.969554
v -0.647893 2.744674 -0.965307
v -0.632540 2.786028 -0.993895
v -0.647893 2.830017 -0.969554
v -0.647893 2.970481 -4.013389
v -0.630670 2.947130 -3.983330
v -0.647893 2.923779 -4.010739
v -0.355105 2.970476 -4.013388
v -0.372329 2.947130 -3.983330
v -0.355105 2.923784 -4.010740
v -0.355105 3.084389 -0.988985
v -0.372329 3.061040 -1.016339
v -0.355105 3.037692 -0.986225
v -0.647893 3.084384 -0.988985
v -0.630670 3.061040 -1.016340
v -0.647893 3.037697 -0.986225
vt 0.172228 0.136317
vt 0.185526 0.134719
vt 0.192267 0.278151
vt 0.517856 0.996094
vt 0.203039 0.134042
vt 0.517856 0.973322
vt 0.325403 0.003906
vt 0.341478 0.004184
vt 0.348709 0.133951
vt 0.331255 0.133427
vt 0.353638 0.006547
vt 0.361953 0.135454
vt 0.033362 0.155865
vt 0.020607 0.157308
vt 0.034872 0.035312
vt 0.047708 0.033691
vt 0.648771 0.152033
vt 0.641277 0.022991
vt 0.527535 0.154811
vt 0.511130 0.154495
vt 0.498928 0.031937
vt 0.516130 0.031340
vt 0.498604 0.153208
vt 0.485882 0.030319
vt 0.533431 0.973322
vt 0.528869 0.989424
vt 0.364736 0.973322
vt 0.380310 0.973322
vt 0.380310 0.996094
vt 0.369298 0.989424
vt 0.206874 0.006687
vt 0.178844 0.009117
vt 0.369298 0.834069
vt 0.033215 0.294965
vt 0.190900 0.006842
vt 0.342338 0.279337
vt 0.505277 0.293195
vt 0.380310 0.827399
vt 0.380311 0.850171
vt 0.364736 0.850171
vt 0.533431 0.850171
vt 0.492183 0.292434
vt 0.522294 0.294062
vt 0.517856 0.850171
vt 0.016468 0.296517
vt 0.046077 0.293687
vt 0.354701 0.280121
vt 0.517856 0.827399
vt 0.326344 0.278435
vt 0.208217 0.276874
vt 0.528869 0.834069
vt 0.179985 0.279209
vt 0.003906 0.157836
vt 0.018034 0.034751
vt 0.647415 0.296517
vt 0.344011 0.643268
vt 0.344011 0.811963
vt 0.170681 0.811963
vt 0.170681 0.643268
vt 0.184321 0.984446
vt 0.184321 0.815751
vt 0.359407 0.815751
vt 0.359407 0.984446
vt 0.041734 0.643268
vt 0.041734 0.811963
vt 0.003906 0.811963
vt 0.003906 0.643268
vt 0.502284 0.643268
vt 0.502284 0.811963
vt 0.462732 0.811963
vt 0.462732 0.643268
vt 0.864625 0.654785
vt 0.825967 0.483608
vt 0.865492 0.485068
vt 0.902426 0.656214
vt 0.536293 0.652273
vt 0.528369 0.613523
vt 0.703569 0.623576
vt 0.711179 0.660630
vt 0.054600 0.652114
vt 0.054600 0.803117
vt 0.066734 0.643268
vt 0.066734 0.811963
vt 0.849049 0.653703
vt 0.811074 0.485523
vt 0.834155 0.655618
vt 0.795497 0.484441
vt 0.450598 0.803117
vt 0.450598 0.652114
vt 0.437732 0.811963
vt 0.437732 0.643268
vt 0.699391 0.593381
vt 0.699945 0.608388
vt 0.527815 0.598517
vt 0.524191 0.583329
vt 0.151325 0.811963
vt 0.151326 0.643268
vt 0.691738 0.484841
vt 0.711088 0.485231
vt 0.739523 0.656214
vt 0.720171 0.655823
vt 0.363366 0.643268
vt 0.363365 0.811963
vt 0.684454 0.499934
vt 0.511124 0.499934
vt 0.507565 0.480909
vt 0.680895 0.480909
vt 0.137364 0.643268
vt 0.137365 0.811963
vt 0.763530 0.654705
vt 0.735096 0.483716
vt 0.377326 0.811963
vt 0.377325 0.643268
vt 0.513568 0.523864
vt 0.686905 0.523865
vt 0.684093 0.512072
vt 0.513932 0.511727
vt 0.144328 0.653192
vt 0.144328 0.802039
vt 0.751436 0.653866
vt 0.723182 0.486067
vt 0.370328 0.802039
vt 0.370328 0.653192
vt 0.344011 0.470786
vt 0.344011 0.639480
vt 0.170681 0.639480
vt 0.170681 0.470786
vt 0.178992 0.815751
vt 0.178992 0.984446
vt 0.003906 0.984446
vt 0.003906 0.815751
vt 0.041734 0.470786
vt 0.041734 0.639480
vt 0.003906 0.639480
vt 0.003906 0.470786
vt 0.502284 0.470786
vt 0.502284 0.639480
vt 0.462732 0.639480
vt 0.462732 0.470786
vt 0.864625 0.834103
vt 0.825968 0.662926
vt 0.865492 0.664386
vt 0.902426 0.835531
vt 0.536293 0.834672
vt 0.528369 0.795923
vt 0.703569 0.805975
vt 0.711179 0.843029
vt 0.054600 0.479632
vt 0.054600 0.630634
vt 0.066734 0.470786
vt 0.066734 0.639480
vt 0.849049 0.833020
vt 0.811074 0.664841
vt 0.834155 0.834935
vt 0.795497 0.663758
vt 0.450598 0.630634
vt 0.450598 0.479632
vt 0.437732 0.639480
vt 0.437732 0.470786
vt 0.699391 0.775781
vt 0.699945 0.790787
vt 0.527815 0.780917
vt 0.524191 0.765729
vt 0.151325 0.639480
vt 0.151326 0.470786
vt 0.691738 0.664158
vt 0.711088 0.664549
vt 0.739523 0.835531
vt 0.720171 0.835141
vt 0.363366 0.470786
vt 0.363365 0.639480
vt 0.684455 0.682333
vt 0.511124 0.682334
vt 0.507565 0.663309
vt 0.680895 0.663309
vt 0.137364 0.470786
vt 0.137365 0.639480
vt 0.763530 0.834022
vt 0.735096 0.663034
vt 0.377326 0.639480
vt 0.377325 0.470786
vt 0.513568 0.706263
vt 0.686905 0.706264
vt 0.684093 0.694471
vt 0.513932 0.694126
vt 0.144328 0.480709
vt 0.144328 0.629556
vt 0.751436 0.833184
vt 0.723182 0.665384
vt 0.370328 0.629556
vt 0.370328 0.480709
vt 0.381598 0.298303
vt 0.381598 0.466997
vt 0.208267 0.466997
vt 0.208267 0.298303
vt 0.908169 0.180300
vt 0.908169 0.348994
vt 0.733083 0.348994
vt 0.733083 0.180300
vt 0.079320 0.298303
vt 0.079320 0.466997
vt 0.041493 0.466997
vt 0.041493 0.298303
vt 0.539870 0.298303
vt 0.539870 0.466997
vt 0.500319 0.466997
vt 0.500319 0.298303
vt 0.819521 0.175083
vt 0.780864 0.003906
vt 0.820388 0.005366
vt 0.857322 0.176512
vt 0.573880 0.471670
vt 0.565955 0.432920
vt 0.741155 0.442972
vt 0.748765 0.480026
vt 0.092187 0.307149
vt 0.092187 0.458151
vt 0.104321 0.298303
vt 0.104321 0.466997
vt 0.803945 0.174001
vt 0.765970 0.005821
vt 0.789051 0.175916
vt 0.750393 0.004739
vt 0.488185 0.458151
vt 0.488185 0.307149
vt 0.475318 0.466997
vt 0.475318 0.298303
vt 0.736978 0.412778
vt 0.737532 0.427784
vt 0.565401 0.417914
vt 0.561778 0.402726
vt 0.188911 0.466997
vt 0.188912 0.298303
vt 0.646635 0.005139
vt 0.665985 0.005529
vt 0.694419 0.176512
vt 0.675067 0.176121
vt 0.400953 0.298303
vt 0.400951 0.466997
vt 0.722041 0.319330
vt 0.548711 0.319331
vt 0.545151 0.300306
vt 0.718482 0.300306
vt 0.174950 0.298303
vt 0.174951 0.466997
vt 0.718427 0.175003
vt 0.689992 0.004014
vt 0.414913 0.466997
vt 0.414911 0.298303
vt 0.551154 0.343260
vt 0.724491 0.343261
vt 0.721680 0.331468
vt 0.551519 0.331123
vt 0.181914 0.308227
vt 0.181914 0.457073
vt 0.706333 0.174164
vt 0.678078 0.006365
vt 0.407914 0.457073
vt 0.407914 0.308227
vn -0.999552 0.000642 0.029934
vn -0.923916 0.008198 0.382507
vn -0.923880 -0.000000 0.382683
vn -0.999529 0.000000 0.030698
vn -0.382771 0.019801 0.923631
vn -0.048092 0.021409 0.998613
vn -0.047843 -0.000000 0.998855
vn -0.382683 -0.000000 0.923880
vn 0.047359 0.046395 0.997800
vn 0.382684 0.042912 0.922882
vn 0.382771 0.019801 0.923631
vn 0.048092 0.021409 0.998613
vn 0.923880 0.017775 0.382270
vn 0.999476 0.001504 0.032345
vn 0.999552 0.000642 0.029934
vn 0.923916 0.008198 0.382507
vn -0.999504 -0.000675 -0.031470
vn -0.923916 -0.008203 -0.382507
vn -0.923880 -0.017775 -0.382270
vn -0.999575 -0.001354 -0.029128
vn -0.382771 -0.019803 -0.923631
vn -0.047614 -0.021410 -0.998636
vn -0.048321 -0.046393 -0.997754
vn -0.382683 -0.042912 -0.922883
vn 0.047614 -0.021410 -0.998636
vn 0.382771 -0.019803 -0.923631
vn 0.382683 -0.042912 -0.922883
vn 0.048321 -0.046393 -0.997754
vn 0.923916 -0.008203 -0.382507
vn 0.999504 -0.000675 -0.031470
vn 0.999575 -0.001354 -0.029128
vn 0.923880 -0.017775 -0.382270
vn 0.047843 -0.000000 0.998855
vn -0.047838 0.000000 -0.998855
vn 0.047838 0.000000 -0.998855
vn 0.999529 -0.000000 -0.030684
vn 0.999529 -0.000000 0.030698
vn -0.999529 0.000000 -0.030684
vn -0.047359 0.046395 0.997800
vn -0.999476 0.001504 0.032345
vn 0.000000 1.000000 0.000000
vn 0.000000 1.000000 0.000000
vn 0.000000 1.000000 0.000000
vn 0.000000 1.000000 0.000000
vn -0.923880 0.017775 0.382270
vn -0.382684 0.042912 0.922882
vn 0.382683 -0.000000 0.923880
vn 0.923880 -0.000000 0.382683
vn -0.923880 0.000000 -0.382683
vn -0.382684 0.000000 -0.923879
vn 0.382684 0.000000 -0.923879
vn 0.923880 0.000000 -0.382683
vn 0.000000 1.000000 -0.000005
vn 0.000000 1.000000 0.000000
vn 0.000000 1.000000 0.000000
vn 0.000000 1.000000 0.000000
vn 0.000000 1.000000 0.000005
vn 0.000000 1.000000 0.000000
vn 0.000000 1.000000 0.000000
vn 0.000000 1.000000 -0.000004
vn 0.000000 1.000000 0.000000
vn 0.000000 1.000000 0.000000
vn 0.000000 1.000000 0.000000
vn 0.000000 1.000000 0.000000
vn 0.000000 0.999291 -0.037636
vn 0.000000 0.999291 -0.037636
vn 0.000000 0.999291 -0.037636
vn 0.000000 0.999291 -0.037636
vn 0.000000 -0.998881 0.047294
vn 0.000000 -0.998881 0.047294
vn 0.000000 -0.998881 0.047294
vn 0.000000 -0.998881 0.047294
vn 0.000000 0.154392 -0.988010
vn 0.000000 0.154392 -0.988010
vn 0.000000 0.052960 -0.998597
vn 0.000000 0.052960 -0.998597
vn 0.000000 -0.048538 0.998821
vn 0.000000 -0.048538 0.998821
vn 0.000000 0.091215 0.995831
vn 0.000000 0.091215 0.995831
vn 0.998223 0.059511 -0.002934
vn 0.997812 0.066032 -0.003256
vn 1.000000 -0.000000 0.000000
vn 1.000000 -0.000000 0.000000
vn -1.000000 0.000000 0.000000
vn -0.997812 0.066031 -0.003256
vn -0.998223 0.059511 -0.002934
vn -1.000000 0.000000 0.000000
vn 0.000000 -0.049716 -0.998763
vn 0.000000 -0.049716 -0.998763
vn 0.000000 -0.568629 -0.822594
vn 0.000000 -0.568629 -0.822594
vn 1.000000 -0.000076 0.000004
vn 1.000000 0.000073 -0.000004
vn 0.999233 -0.039111 0.001928
vn 0.999181 -0.040419 0.001993
vn 0.000000 0.049699 0.998764
vn 0.000000 0.049699 0.998764
vn 0.000000 -0.484154 0.874983
vn 0.000000 -0.484154 0.874983
vn -0.999233 -0.039110 0.001928
vn -1.000000 -0.000076 0.000004
vn -1.000000 0.000074 -0.000004
vn -0.999181 -0.040419 0.001993
vn -0.000000 -0.037973 -0.999279
vn -0.000000 -0.037973 -0.999279
vn -0.000002 -0.270098 -0.962833
vn -0.000002 -0.270097 -0.962833
vn 1.000000 0.000000 0.000000
vn 0.994105 -0.108342 0.004120
vn 0.993938 -0.109863 0.004178
vn 1.000000 0.000000 0.000000
vn 0.000002 -0.189697 0.981843
vn 0.000002 -0.189695 0.981843
vn -0.000000 0.037982 0.999278
vn -0.000000 0.037982 0.999278
vn -0.993937 -0.109868 0.004178
vn -0.994106 -0.108333 0.004119
vn -1.000000 0.000000 0.000000
vn -1.000000 0.000000 0.000000
vn -0.000001 0.000560 -1.000000
vn -0.000001 0.000561 -1.000000
vn -0.000001 -0.075247 -0.997165
vn -0.000001 -0.075247 -0.997165
vn 0.999327 0.036651 -0.001394
vn 0.999369 0.035494 -0.001350
vn -0.000001 0.080016 0.996794
vn -0.000001 0.080016 0.996794
vn 0.000000 0.164692 0.986345
vn 0.000000 0.164693 0.986345
vn -0.999369 0.035491 -0.001350
vn -0.999327 0.036653 -0.001394
vn -0.999997 0.002456 -0.000094
vn -0.999998 -0.002145 0.000081
vn -0.000010 -0.050156 -0.998741
vn -0.000010 -0.050155 -0.998741
vn 0.999997 0.002458 -0.000093
vn 0.999998 -0.002142 0.000082
vn 0.000011 0.052245 0.998634
vn 0.000011 0.052244 0.998634
vn 0.000000 0.999086 -0.042753
vn 0.000000 0.999086 -0.042753
vn 0.000000 0.999086 -0.042753
vn 0.000000 0.999086 -0.042753
vn 0.000000 -0.999452 0.033094
vn 0.000000 -0.999452 0.033094
vn 0.000000 -0.999452 0.033094
vn 0.000000 -0.999452 0.033094
vn 0.000000 0.233255 0.972416
vn 0.000000 0.233255 0.972416
vn 0.000000 0.133001 0.991116
vn 0.000000 0.133001 0.991116
vn 0.000000 -0.128611 -0.991695
vn 0.000000 -0.128611 -0.991695
vn 0.000000 0.010930 -0.999940
vn 0.000000 0.010930 -0.999940
vn -0.998223 0.059555 -0.001855
vn -0.997812 0.066080 -0.002059
vn -1.000000 -0.000000 0.000000
vn -1.000000 -0.000000 0.000000
vn 1.000000 0.000000 0.000000
vn 0.997812 0.066080 -0.002059
vn 0.998223 0.059555 -0.001855
vn 1.000000 0.000000 0.000000
vn 0.000000 0.030671 0.999529
vn 0.000000 0.030671 0.999529
vn 0.000000 -0.500717 0.865611
vn 0.000000 -0.500717 0.865611
vn -1.000000 -0.000075 0.000002
vn -1.000000 0.000074 -0.000002
vn -0.999233 -0.039139 0.001219
vn -0.999181 -0.040449 0.001260
vn 0.000000 -0.030688 -0.999529
vn 0.000000 -0.030688 -0.999529
vn 0.000000 -0.552873 -0.833265
vn 0.000000 -0.552873 -0.833265
vn 0.999233 -0.039139 0.001219
vn 1.000000 -0.000076 0.000002
vn 1.000000 0.000073 -0.000002
vn 0.999181 -0.040449 0.001260
vn 0.000000 0.042413 0.999100
vn 0.000000 0.042413 0.999100
vn 0.000002 -0.191888 0.981417
vn 0.000002 -0.191886 0.981417
vn -1.000000 -0.000001 0.000000
vn -0.994105 -0.108324 0.004596
vn -0.993938 -0.109844 0.004661
vn -1.000000 -0.000001 0.000000
vn -0.000002 -0.267949 -0.963433
vn -0.000002 -0.267947 -0.963434
vn 0.000000 -0.042407 -0.999100
vn 0.000000 -0.042407 -0.999100
vn 0.993937 -0.109849 0.004661
vn 0.994106 -0.108314 0.004596
vn 1.000000 0.000000 0.000000
vn 1.000000 0.000000 0.000000
vn 0.000001 0.080883 0.996724
vn 0.000001 0.080883 0.996724
vn 0.000000 0.005092 0.999987
vn 0.000000 0.005092 0.999987
vn -0.999327 0.036644 -0.001555
vn -0.999369 0.035487 -0.001506
vn 0.000000 -0.000309 -1.000000
vn 0.000000 -0.000309 -1.000000
vn -0.000001 0.084932 -0.996387
vn -0.000001 0.084933 -0.996387
vn 0.999369 0.035485 -0.001506
vn 0.999327 0.036647 -0.001555
vn 0.999997 0.002458 -0.000104
vn 0.999998 -0.002143 0.000092
vn 0.000010 0.030233 0.999543
vn 0.000010 0.030233 0.999543
vn -0.999997 0.002458 -0.000105
vn -0.999998 -0.002141 0.000090
vn -0.000011 -0.028137 -0.999604
vn -0.000011 -0.028137 -0.999604
vn 0.000000 0.999291 -0.037636
vn 0.000000 0.999291 -0.037636
vn 0.000000 0.999291 -0.037636
vn 0.000000 0.999291 -0.037636
vn 0.000000 -0.998881 0.047294
vn 0.000000 -0.998881 0.047294
vn 0.000000 -0.998881 0.047294
vn 0.000000 -0.998881 0.047294
vn 0.000000 0.154392 -0.988010
vn 0.000000 0.154392 -0.988010
vn 0.000000 0.052960 -0.998597
vn 0.000000 0.052960 -0.998597
vn 0.000000 -0.048538 0.998821
vn 0.000000 -0.048538 0.998821
vn 0.000000 0.091215 0.995831
vn 0.000000 0.091215 0.995831
vn 0.998223 0.059511 -0.002934
vn 0.997812 0.066031 -0.003256
vn 1.000000 -0.000000 0.000000
vn 1.000000 -0.000000 0.000000
vn -1.000000 0.000000 0.000000
vn -0.997812 0.066031 -0.003256
vn -0.998223 0.059511 -0.002934
vn -1.000000 0.000000 0.000000
vn 0.000000 -0.049717 -0.998763
vn 0.000000 -0.049717 -0.998763
vn 0.000000 -0.568629 -0.822594
vn 0.000000 -0.568629 -0.822594
vn 1.000000 -0.000076 0.000004
vn 1.000000 0.000074 -0.000004
vn 0.999233 -0.039111 0.001928
vn 0.999181 -0.040419 0.001993
vn 0.000000 0.049699 0.998764
vn 0.000000 0.049699 0.998764
vn 0.000000 -0.484152 0.874984
vn 0.000000 -0.484152 0.874984
vn -0.999233 -0.039110 0.001928
vn -1.000000 -0.000076 0.000004
vn -1.000000 0.000074 -0.000004
vn -0.999181 -0.040419 0.001993
vn 0.000000 -0.037974 -0.999279
vn 0.000000 -0.037974 -0.999279
vn -0.000002 -0.270099 -0.962833
vn -0.000002 -0.270097 -0.962833
vn 1.000000 0.000000 0.000000
vn 0.994105 -0.108342 0.004120
vn 0.993938 -0.109863 0.004178
vn 1.000000 0.000000 0.000000
vn 0.000002 -0.189697 0.981843
vn 0.000002 -0.189695 0.981843
vn -0.000000 0.037982 0.999278
vn -0.000000 0.037982 0.999278
vn -0.993937 -0.109868 0.004178
vn -0.994106 -0.108333 0.004119
vn -1.000000 0.000000 0.000000
vn -1.000000 0.000000 0.000000
vn -0.000001 0.000560 -1.000000
vn -0.000001 0.000561 -1.000000
vn -0.000001 -0.075247 -0.997165
vn -0.000001 -0.075247 -0.997165
vn 0.999327 0.036651 -0.001394
vn 0.999369 0.035494 -0.001350
vn -0.000001 0.080016 0.996794
vn -0.000001 0.080016 0.996794
vn 0.000000 0.164692 0.986345
vn 0.000000 0.164693 0.986345
vn -0.999369 0.035491 -0.001350
vn -0.999327 0.036653 -0.001394
vn -0.999997 0.002457 -0.000094
vn -0.999998 -0.002145 0.000081
vn -0.000010 -0.050154 -0.998742
vn -0.000010 -0.050155 -0.998741
vn 0.999997 0.002458 -0.000093
vn 0.999998 -0.002142 0.000082
vn 0.000011 0.052245 0.998634
vn 0.000011 0.052244 0.998634
s 1
g pCube21
usemtl initialShadingGroup
f 6/1/1 5/2/2 25/3/3 27/52/4
s 2
f 5/2/5 4/5/6 26/50/7 25/3/8
f 9/7/9 8/8/10 11/9/11 10/10/12
s 4
f 8/8/13 7/11/14 12/12/15 11/9/16
s 1
f 18/13/17 17/14/18 34/15/19 36/16/20
s 6
f 17/14/21 16/53/22 35/54/23 34/15/24
f 24/19/25 23/20/26 31/21/27 33/22/28
s 4
f 23/20/29 22/23/30 32/24/31 31/21/32
s 2
f 4/5/6 10/10/12 30/49/33 26/50/7
s 6
f 16/17/22 15/55/34 20/43/35 24/19/25
s 4
f 12/12/15 22/23/30 21/42/36 29/47/37
s 1
f 18/13/17 6/1/1 27/52/4 14/46/38
s 2
f 4/5/6 2/31/39 9/7/9 10/10/12
s 4
f 12/12/15 7/11/14 32/24/31 22/23/30
s 6
f 16/17/22 24/19/25 33/22/28 35/18/23
s 1
f 18/13/17 36/16/20 1/32/40 6/1/1
s 9
f 14/4/41 38/6/42 15/25/43 13/26/44
s 1
f 1/32/40 3/35/45 5/2/2 6/1/1
s 2
f 3/35/46 2/31/39 4/5/6 5/2/5
f 10/10/12 11/9/11 28/36/47 30/49/33
s 4
f 11/9/16 12/12/15 29/47/37 28/36/48
s 1
f 14/46/38 13/34/49 17/14/18 18/13/17
s 6
f 13/34/50 15/45/34 16/53/22 17/14/21
f 20/43/35 19/37/51 23/20/26 24/19/25
s 4
f 19/37/52 21/42/36 22/23/30 23/20/29
s 9
f 26/27/53 37/28/54 27/29/55 25/30/56
f 28/33/57 29/38/58 40/39/59 30/40/60
f 20/41/61 39/44/62 21/48/63 19/51/64
f 27/29/55 37/28/54 38/6/42 14/4/41
f 21/48/63 39/44/62 40/39/59 29/38/58
f 15/25/43 38/6/42 39/44/62 20/41/61
f 40/39/59 39/44/62 38/6/42 37/28/54
f 30/40/60 40/39/59 37/28/54 26/27/53
s off
g modelPanel2ViewSelectedSet textureEditorIsolateSelectSet pCube21
f 41/56/65 42/57/66 44/58/67 43/59/68
f 45/60/69 46/61/70 48/62/71 47/63/72
s 12
f 49/64/73 52/65/74 46/66/75 45/67/76
s 13
f 47/68/77 48/69/78 55/70/79 58/71/80
s 14
f 52/72/81 55/73/82 48/74/83 46/75/84
s 15
f 47/76/85 58/77/86 49/78/87 45/79/88
s 12
f 49/64/73 50/80/89 53/81/90 52/65/74
f 50/80/89 51/82/91 54/83/92 53/81/90
s 14
f 52/72/81 53/84/93 56/85/94 55/73/82
f 53/84/93 54/86/95 57/87/96 56/85/94
s 13
f 55/70/79 56/88/97 59/89/98 58/71/80
f 56/88/97 57/90/99 60/91/100 59/89/98
s 15
f 51/92/101 50/93/102 59/94/103 60/95/104
f 50/93/102 49/78/87 58/77/86 59/94/103
s 16
f 43/59/105 44/58/106 64/96/107 61/97/108
s 14
f 42/98/109 67/99/110 64/100/111 44/101/112
s 18
f 70/102/113 67/103/114 42/57/115 41/56/116
s 15
f 61/104/117 70/105/118 41/106/119 43/107/120
s 16
f 63/108/121 66/109/122 54/83/123 51/82/124
s 14
f 66/110/125 69/111/126 57/87/96 54/86/95
s 18
f 60/91/127 57/90/128 69/112/129 72/113/130
s 15
f 51/92/101 60/95/104 72/114/131 63/115/132
f 61/104/117 62/116/133 71/117/134 70/105/118
f 62/116/133 63/115/132 72/114/131 71/117/134
s 16
f 63/108/121 62/118/135 65/119/136 66/109/122
f 62/118/135 61/97/108 64/96/107 65/119/136
s 14
f 66/110/125 65/120/137 68/121/138 69/111/126
f 65/120/137 64/100/111 67/99/110 68/121/138
s 18
f 69/112/129 68/122/139 71/123/140 72/113/130
f 68/122/139 67/103/114 70/102/113 71/123/140
s off
f 73/124/141 74/125/142 76/126/143 75/127/144
f 77/128/145 78/129/146 80/130/147 79/131/148
s 22
f 81/132/149 84/133/150 78/134/151 77/135/152
s 23
f 79/136/153 80/137/154 87/138/155 90/139/156
s 24
f 84/140/157 87/141/158 80/142/159 78/143/160
s 25
f 79/144/161 90/145/162 81/146/163 77/147/164
s 22
f 81/132/149 82/148/165 85/149/166 84/133/150
f 82/148/165 83/150/167 86/151/168 85/149/166
s 24
f 84/140/157 85/152/169 88/153/170 87/141/158
f 85/152/169 86/154/171 89/155/172 88/153/170
s 23
f 87/138/155 88/156/173 91/157/174 90/139/156
f 88/156/173 89/158/175 92/159/176 91/157/174
s 25
f 83/160/177 82/161/178 91/162/179 92/163/180
f 82/161/178 81/146/163 90/145/162 91/162/179
s 26
f 75/127/181 76/126/182 96/164/183 93/165/184
s 24
f 74/166/185 99/167/186 96/168/187 76/169/188
s 28
f 102/170/189 99/171/190 74/125/191 73/124/192
s 25
f 93/172/193 102/173/194 73/174/195 75/175/196
s 26
f 95/176/197 98/177/198 86/151/199 83/150/200
s 24
f 98/178/201 101/179/202 89/155/172 86/154/171
s 28
f 92/159/203 89/158/204 101/180/205 104/181/206
s 25
f 83/160/177 92/163/180 104/182/207 95/183/208
f 93/172/193 94/184/209 103/185/210 102/173/194
f 94/184/209 95/183/208 104/182/207 103/185/210
s 26
f 95/176/197 94/186/211 97/187/212 98/177/198
f 94/186/211 93/165/184 96/164/183 97/187/212
s 24
f 98/178/201 97/188/213 100/189/214 101/179/202
f 97/188/213 96/168/187 99/167/186 100/189/214
s 28
f 101/180/205 100/190/215 103/191/216 104/181/206
f 100/190/215 99/171/190 102/170/189 103/191/216
s off
f 105/192/217 106/193/218 108/194/219 107/195/220
f 109/196/221 110/197/222 112/198/223 111/199/224
s 32
f 113/200/225 116/201/226 110/202/227 109/203/228
s 33
f 111/204/229 112/205/230 119/206/231 122/207/232
s 34
f 116/208/233 119/209/234 112/210/235 110/211/236
s 35
f 111/212/237 122/213/238 113/214/239 109/215/240
s 32
f 113/200/225 114/216/241 117/217/242 116/201/226
f 114/216/241 115/218/243 118/219/244 117/217/242
s 34
f 116/208/233 117/220/245 120/221/246 119/209/234
f 117/220/245 118/222/247 121/223/248 120/221/246
s 33
f 119/206/231 120/224/249 123/225/250 122/207/232
f 120/224/249 121/226/251 124/227/252 123/225/250
s 35
f 115/228/253 114/229/254 123/230/255 124/231/256
f 114/229/254 113/214/239 122/213/238 123/230/255
s 36
f 107/195/257 108/194/258 128/232/259 125/233/260
s 34
f 106/234/261 131/235/262 128/236/263 108/237/264
s 38
f 134/238/265 131/239/266 106/193/267 105/192/268
s 35
f 125/240/269 134/241/270 105/242/271 107/243/272
s 36
f 127/244/273 130/245/274 118/219/275 115/218/276
s 34
f 130/246/277 133/247/278 121/223/248 118/222/247
s 38
f 124/227/279 121/226/280 133/248/281 136/249/282
s 35
f 115/228/253 124/231/256 136/250/283 127/251/284
f 125/240/269 126/252/285 135/253/286 134/241/270
f 126/252/285 127/251/284 136/250/283 135/253/286
s 36
f 127/244/273 126/254/287 129/255/288 130/245/274
f 126/254/287 125/233/260 128/232/259 129/255/288
s 34
f 130/246/277 129/256/289 132/257/290 133/247/278
f 129/256/289 128/236/263 131/235/262 132/257/290
s 38
f 133/248/281 132/258/291 135/259/292 136/249/282
f 132/258/291 131/239/266 134/238/265 135/259/292
